<svg width="25" height="25" viewBox="0 0 25 25" fill="none" xmlns="http://www.w3.org/2000/svg">
<circle cx="12.3271" cy="12.5" r="12" fill="#1A3A32"/>
<path d="M16.938 12.3348C16.9006 12.2352 16.8446 12.1481 16.77 12.0734L12.8873 8.19076C12.738 8.04142 12.5513 7.96676 12.3273 7.96676C12.1158 7.95431 11.9291 8.02898 11.7673 8.19076C11.618 8.34009 11.5433 8.52676 11.5433 8.75076C11.5433 8.96231 11.618 9.14276 11.7673 9.29209L14.3433 11.8494H8.44465C8.23309 11.8494 8.04642 11.9303 7.88464 12.0921C7.73531 12.2414 7.66064 12.4219 7.66064 12.6334C7.66064 12.845 7.73531 13.0316 7.88464 13.1934C8.04642 13.3428 8.23309 13.4174 8.44465 13.4174H14.3433L11.7673 15.9748C11.618 16.1241 11.5433 16.3108 11.5433 16.5348C11.5433 16.7463 11.618 16.933 11.7673 17.0948C11.9166 17.2441 12.1033 17.3188 12.3273 17.3188C12.5513 17.3188 12.738 17.2379 12.8873 17.0761L16.77 13.1934C16.8446 13.1188 16.9006 13.0316 16.938 12.9321C17.0251 12.733 17.0251 12.5339 16.938 12.3348Z" fill="white"/>
</svg>
