<svg width="125" height="38" viewBox="0 0 125 38" fill="none" xmlns="http://www.w3.org/2000/svg">
<g clip-path="url(#clip0_3838_17654)">
<g opacity="0.5">
<path opacity="0.5" d="M42.6268 36.4957H42.1392V32.7722H40.8242V32.3438H43.9418V32.7722H42.6268V36.4957Z" fill="#112039"/>
<path opacity="0.5" d="M50.6205 36.4957H48.3008V32.3438H50.6205V32.7722H48.7884V34.1168H50.5171V34.5453H48.7884V36.0819H50.6205V36.4957Z" fill="#112039"/>
<path opacity="0.5" d="M57.0474 32.7127C56.5894 32.7127 56.2348 32.8604 55.9688 33.1707C55.7029 33.481 55.5699 33.8947 55.5699 34.4266C55.5699 34.9733 55.7029 35.387 55.954 35.6825C56.2052 35.978 56.5746 36.1258 57.0474 36.1258C57.3429 36.1258 57.668 36.0667 58.0374 35.9632V36.3917C57.7419 36.4952 57.3872 36.5543 56.9735 36.5543C56.3677 36.5543 55.8949 36.3622 55.5551 35.9928C55.2153 35.6234 55.0527 35.0915 55.0527 34.4118C55.0527 33.9833 55.1266 33.614 55.2891 33.2889C55.4517 32.9638 55.6733 32.7127 55.9836 32.5501C56.2939 32.3876 56.6485 32.2842 57.0474 32.2842C57.4907 32.2842 57.8601 32.3581 58.1851 32.5206L57.9783 32.9343C57.6828 32.7865 57.3725 32.7127 57.0474 32.7127Z" fill="#112039"/>
<path opacity="0.5" d="M65.824 36.4957H65.3365V34.5453H63.1497V36.4957H62.6621V32.3438H63.1497V34.1168H65.3365V32.3438H65.824V36.4957Z" fill="#112039"/>
<path opacity="0.5" d="M73.9508 36.4957H73.4041L71.1287 33.0086H71.0991C71.1287 33.4224 71.1435 33.7917 71.1435 34.1316V36.4957H70.7002V32.3438H71.2469L73.5075 35.816H73.5371C73.5371 35.7717 73.5223 35.5943 73.5075 35.3284C73.4928 35.0477 73.4928 34.8556 73.4928 34.7374V32.3438H73.9508V36.4957Z" fill="#112039"/>
<path opacity="0.5" d="M82.4318 34.412C82.4318 35.0769 82.2693 35.594 81.9295 35.9782C81.5896 36.3623 81.1316 36.5544 80.5258 36.5544C79.92 36.5544 79.4472 36.3623 79.1073 35.9929C78.7675 35.6236 78.605 35.0916 78.605 34.412C78.605 33.7323 78.7675 33.2152 79.1073 32.831C79.4472 32.4616 79.92 32.2695 80.5258 32.2695C81.1168 32.2695 81.5896 32.4616 81.9295 32.8458C82.2693 33.2299 82.4318 33.7471 82.4318 34.412ZM79.1221 34.412C79.1221 34.9734 79.2403 35.4019 79.4767 35.6974C79.7131 35.9929 80.0678 36.1407 80.5258 36.1407C80.9838 36.1407 81.3385 35.9929 81.5749 35.7122C81.8113 35.4167 81.9295 34.9882 81.9295 34.4267C81.9295 33.8653 81.8113 33.4368 81.5749 33.1561C81.3385 32.8605 80.9986 32.7276 80.5406 32.7276C80.0825 32.7276 79.7279 32.8753 79.4915 33.1708C79.2403 33.4368 79.1221 33.8653 79.1221 34.412Z" fill="#112039"/>
<path opacity="0.5" d="M87.0859 36.4956V32.3438H87.5735V36.0672H89.4057V36.5104H87.0859V36.4956Z" fill="#112039"/>
<path opacity="0.5" d="M97.4436 34.412C97.4436 35.0769 97.281 35.594 96.9412 35.9782C96.6014 36.3623 96.1433 36.5544 95.5375 36.5544C94.9317 36.5544 94.4589 36.3623 94.1191 35.9929C93.7792 35.6236 93.6167 35.0916 93.6167 34.412C93.6167 33.7323 93.7792 33.2152 94.1191 32.831C94.4589 32.4616 94.9317 32.2695 95.5375 32.2695C96.1285 32.2695 96.6014 32.4616 96.9412 32.8458C97.281 33.2299 97.4436 33.7471 97.4436 34.412ZM94.1338 34.412C94.1338 34.9734 94.252 35.4019 94.4885 35.6974C94.7249 35.9929 95.0795 36.1407 95.5375 36.1407C95.9956 36.1407 96.3502 35.9929 96.5866 35.7122C96.823 35.4167 96.9412 34.9882 96.9412 34.4267C96.9412 33.8653 96.823 33.4368 96.5866 33.1561C96.3502 32.8605 96.0103 32.7276 95.5523 32.7276C95.0943 32.7276 94.7396 32.8753 94.5032 33.1708C94.252 33.4368 94.1338 33.8653 94.1338 34.412Z" fill="#112039"/>
<path opacity="0.5" d="M103.93 34.3231H105.349V36.3473C105.127 36.4212 104.905 36.4655 104.684 36.5098C104.462 36.5394 104.196 36.5689 103.886 36.5689C103.251 36.5689 102.763 36.3768 102.408 36.0075C102.054 35.6381 101.876 35.1062 101.876 34.4265C101.876 33.998 101.965 33.6138 102.142 33.2888C102.32 32.9637 102.571 32.7125 102.896 32.55C103.221 32.3727 103.605 32.2988 104.048 32.2988C104.492 32.2988 104.905 32.3875 105.29 32.55L105.098 32.9785C104.728 32.816 104.359 32.7421 104.019 32.7421C103.517 32.7421 103.118 32.8898 102.837 33.2001C102.556 33.5104 102.408 33.9241 102.408 34.456C102.408 35.0175 102.541 35.446 102.822 35.7267C103.103 36.0222 103.502 36.1552 104.034 36.1552C104.329 36.1552 104.61 36.1257 104.876 36.0518V34.7663H103.945V34.3231H103.93Z" fill="#112039"/>
<path opacity="0.5" d="M110.062 36.4957V32.3438H110.55V36.4957H110.062Z" fill="#112039"/>
<path opacity="0.5" d="M117.745 36.4957H115.425V32.3438H117.745V32.7722H115.913V34.1168H117.642V34.5453H115.913V36.0819H117.745V36.4957Z" fill="#112039"/>
<path opacity="0.5" d="M124.734 35.4017C124.734 35.7711 124.601 36.0518 124.335 36.2586C124.069 36.4655 123.714 36.5689 123.256 36.5689C122.769 36.5689 122.385 36.5098 122.119 36.3768V35.904C122.296 35.9779 122.473 36.037 122.68 36.0813C122.887 36.1257 123.079 36.1404 123.271 36.1404C123.596 36.1404 123.833 36.0813 123.995 35.9631C124.158 35.8449 124.246 35.6676 124.246 35.446C124.246 35.2982 124.217 35.18 124.158 35.0914C124.099 35.0027 124.01 34.9141 123.862 34.8402C123.729 34.7663 123.522 34.6777 123.242 34.5742C122.857 34.4413 122.577 34.2787 122.414 34.0867C122.252 33.8946 122.163 33.6434 122.163 33.3479C122.163 33.0228 122.281 32.7716 122.518 32.5796C122.754 32.3875 123.079 32.2988 123.478 32.2988C123.892 32.2988 124.276 32.3727 124.616 32.5205L124.468 32.9342C124.128 32.7864 123.788 32.7125 123.463 32.7125C123.212 32.7125 123.005 32.7716 122.857 32.8751C122.71 32.9785 122.636 33.141 122.636 33.3331C122.636 33.4809 122.665 33.5991 122.71 33.6877C122.754 33.7764 122.857 33.865 122.976 33.9389C123.094 34.0128 123.301 34.1014 123.552 34.1901C123.995 34.3526 124.291 34.5151 124.453 34.6924C124.616 34.8698 124.734 35.1062 124.734 35.4017Z" fill="#112039"/>
</g>
<path d="M53.4573 20.6858H46.4538L45.124 24.6899H40.8687L48.0938 5.28981H51.8025L59.0572 24.6899H54.8019L53.4573 20.6858ZM47.5324 17.45H52.3787L49.9408 10.1952L47.5324 17.45ZM50.7682 0.0888672H54.9644L51.2705 4.22598H48.1382L50.7682 0.0888672Z" fill="#111D43"/>
<path d="M58.688 17.3759C58.688 15.1595 59.2199 13.3865 60.269 12.0272C61.318 10.6826 62.7365 10.0029 64.5243 10.0029C66.1053 10.0029 67.3316 10.5496 68.2181 11.6282L68.3807 10.2689H71.8677V24.2021C71.8677 25.458 71.5869 26.5662 71.0107 27.497C70.4345 28.4279 69.6366 29.1371 68.5875 29.6247C67.5532 30.1123 66.3269 30.3634 64.938 30.3634C63.8742 30.3634 62.8547 30.1566 61.8499 29.7281C60.8452 29.2996 60.0917 28.7677 59.5745 28.1028L61.2737 25.7535C62.2341 26.8321 63.4014 27.364 64.7607 27.364C65.7802 27.364 66.5781 27.0981 67.1395 26.5514C67.701 26.0047 67.9965 25.2364 67.9965 24.2317V23.4633C67.11 24.4681 65.9427 24.9704 64.4947 24.9704C62.766 24.9704 61.3623 24.2908 60.2985 22.9314C59.2347 21.5721 58.688 19.7843 58.688 17.5384V17.3759ZM62.5444 17.6566C62.5444 18.9716 62.8103 19.9911 63.3275 20.7299C63.8446 21.4687 64.5686 21.838 65.4847 21.838C66.6519 21.838 67.4941 21.3948 67.9965 20.523V14.4503C67.4794 13.5638 66.6519 13.1353 65.4995 13.1353C64.5686 13.1353 63.8446 13.5195 63.3275 14.273C62.8103 15.0266 62.5444 16.1495 62.5444 17.6566Z" fill="#111D43"/>
<path d="M83.7913 17.8193V17.4499C83.7913 16.0019 84.0721 14.7016 84.6335 13.5639C84.6926 13.4457 84.7665 13.3128 84.8256 13.1945C84.5744 12.4558 84.1459 11.8352 83.5697 11.3328C82.5207 10.4463 81.117 9.98828 79.3439 9.98828C78.1767 9.98828 77.1128 10.1951 76.1672 10.5941C75.2216 10.993 74.4976 11.5545 73.9805 12.2637C73.4633 12.9729 73.2121 13.7412 73.2121 14.5834H77.0685C77.0685 14.0367 77.2458 13.6083 77.6152 13.298C77.9846 12.9877 78.487 12.8252 79.1371 12.8252C79.8759 12.8252 80.4078 13.032 80.7624 13.431C81.1022 13.8299 81.2795 14.3618 81.2795 15.0267V15.8541H79.5065C77.364 15.8689 75.724 16.2826 74.601 17.0953C73.4633 17.9079 72.9019 19.0899 72.9019 20.6118C72.9019 21.8529 73.3599 22.8872 74.2907 23.6999C75.2216 24.5125 76.3889 24.9262 77.8073 24.9262C79.2996 24.9262 80.5112 24.4091 81.442 23.3748C81.5159 23.8919 81.6489 24.3204 81.8262 24.6603H85.6974V24.4386C85.4166 23.9067 85.2393 23.1975 85.1654 22.2814C84.2494 21.1142 83.7913 19.6071 83.7913 17.8193ZM81.2647 20.6118C81.0283 21.0403 80.6737 21.3801 80.2009 21.6313C79.7281 21.8825 79.1962 22.0155 78.6347 22.0155C78.0437 22.0155 77.5857 21.8529 77.2458 21.5427C76.906 21.2324 76.7435 20.8334 76.7435 20.3606L76.7582 20.139C76.8764 18.8092 77.9107 18.1443 79.8315 18.1443H81.2647V20.6118Z" fill="#111D43"/>
<path d="M92.8632 24.9558C90.7503 24.9558 89.0216 24.3057 87.7066 23.0054C86.3768 21.7052 85.7119 19.9765 85.7119 17.8192V17.4499C85.7119 16.0019 85.9926 14.7016 86.5541 13.5639C87.1156 12.4262 87.9134 11.5397 88.9329 10.9191C89.9524 10.2986 91.1345 9.98828 92.4495 9.98828C94.4146 9.98828 95.9808 10.6088 97.1037 11.85C98.2414 13.0911 98.8029 14.8494 98.8029 17.1396V18.7058H89.6274C89.7456 19.6514 90.1298 20.4049 90.7503 20.9664C91.3709 21.5279 92.1688 21.8234 93.1292 21.8234C94.6067 21.8234 95.7739 21.2915 96.6014 20.2129L98.4926 22.3258C97.9164 23.1384 97.1333 23.7737 96.1433 24.2318C95.1534 24.7194 94.06 24.9558 92.8632 24.9558ZM92.4199 13.1059C91.6516 13.1059 91.031 13.3719 90.5582 13.889C90.0854 14.4061 89.7751 15.1449 89.6422 16.1053H95.0056V15.795C94.9909 14.938 94.7544 14.2732 94.3112 13.8151C93.8679 13.3423 93.2326 13.1059 92.4199 13.1059Z" fill="#111D43"/>
<path d="M104.211 6.72266V10.2688H106.678V13.0909H104.211V20.2865C104.211 20.8184 104.314 21.2026 104.521 21.439C104.728 21.6754 105.112 21.7788 105.688 21.7788C106.117 21.7788 106.486 21.7493 106.826 21.6902V24.6009C106.073 24.8373 105.289 24.9407 104.492 24.9407C101.788 24.9407 100.414 23.5814 100.354 20.848V13.0909H98.2563V10.2688H100.354V6.72266H104.211Z" fill="#111D43"/>
<path d="M107.432 6.53069C107.432 5.95445 107.624 5.48163 108.008 5.11225C108.393 4.74286 108.924 4.55078 109.589 4.55078C110.239 4.55078 110.771 4.74286 111.156 5.11225C111.54 5.48163 111.747 5.95445 111.747 6.53069C111.747 7.1217 111.554 7.59452 111.156 7.9639C110.757 8.33329 110.239 8.52537 109.589 8.52537C108.939 8.52537 108.422 8.33329 108.023 7.9639C107.639 7.60929 107.432 7.1217 107.432 6.53069ZM111.525 24.6897H107.669V10.2689H111.525V24.6897Z" fill="#111D43"/>
<path d="M121.143 20.7003C121.143 20.2275 120.907 19.8581 120.449 19.5922C119.976 19.3262 119.237 19.075 118.203 18.8682C114.775 18.1442 113.061 16.6962 113.061 14.4947C113.061 13.2092 113.593 12.1454 114.657 11.2884C115.721 10.4314 117.11 10.0029 118.824 10.0029C120.656 10.0029 122.119 10.4314 123.212 11.2884C124.305 12.1454 124.852 13.2683 124.852 14.6424H120.996C120.996 14.0957 120.818 13.6377 120.464 13.2831C120.109 12.9285 119.548 12.7364 118.794 12.7364C118.144 12.7364 117.642 12.8841 117.287 13.1796C116.932 13.4752 116.755 13.8445 116.755 14.3026C116.755 14.7311 116.962 15.0709 117.361 15.3369C117.76 15.6028 118.44 15.8244 119.4 16.0165C120.36 16.2086 121.173 16.4302 121.823 16.6666C123.862 17.4054 124.867 18.7056 124.867 20.5378C124.867 21.8528 124.305 22.9166 123.168 23.7293C122.045 24.5419 120.582 24.9409 118.794 24.9409C117.583 24.9409 116.519 24.7192 115.573 24.2908C114.642 23.8623 113.904 23.2713 113.372 22.5177C112.84 21.7642 112.574 20.9515 112.574 20.0798H116.223C116.253 20.7594 116.519 21.2913 116.977 21.646C117.45 22.0153 118.085 22.1926 118.868 22.1926C119.607 22.1926 120.168 22.0597 120.538 21.7789C120.951 21.513 121.143 21.1584 121.143 20.7003Z" fill="#111D43"/>
<path d="M6.48628 33.7173L9.58912 27.423L12.6772 33.806L14.4946 37.8101H33.0968L16.9325 3.42773L14.6719 8.02289L26.7729 33.806H24.2759L13.2386 10.9336L0.0146484 37.8101H4.56548L6.48628 33.7173ZM13.1943 20.0649L19.8285 33.806H17.1098L11.8202 22.8574L13.1943 20.0649Z" fill="url(#paint0_linear_3838_17654)"/>
</g>
<defs>
<linearGradient id="paint0_linear_3838_17654" x1="16.543" y1="3.42104" x2="16.543" y2="37.8042" gradientUnits="userSpaceOnUse">
<stop offset="0.00127591" stop-color="#A6DEEF"/>
<stop offset="0.5104" stop-color="#6CC5F0"/>
<stop offset="0.9988" stop-color="#355BAA"/>
</linearGradient>
<clipPath id="clip0_3838_17654">
<rect width="125" height="37.8251" fill="white"/>
</clipPath>
</defs>
</svg>
