<svg width="198" height="52" viewBox="0 0 198 52" fill="none" xmlns="http://www.w3.org/2000/svg">
<path d="M188.734 29.1591C183.636 29.1591 179.469 24.901 179.469 19.6907V9.46838C179.469 4.25812 183.636 0 188.734 0C193.833 0 198 4.25812 198 9.46838V19.7332C198 24.9434 193.833 29.1626 188.734 29.1626V29.1591ZM188.734 0.714996C184.024 0.714996 180.21 4.61207 180.21 9.42591V19.6907C180.21 24.5045 184.024 28.4016 188.734 28.4016C193.445 28.4016 197.259 24.5045 197.259 19.6907V9.42945C197.259 4.65455 193.404 0.718535 188.734 0.718535V0.714996Z" fill="#D89655"/>
<path d="M184.529 9.42902H184.373C183.788 9.42902 183.282 9.66617 183.012 10.0661C182.7 10.505 182.662 11.0997 182.894 11.6979C183.206 12.4554 183.75 12.8907 184.297 13.2907C184.335 13.2907 184.335 13.3296 184.373 13.3686C184.803 13.6871 185.035 13.9243 185.073 14.0446H184.997C184.529 14.0836 184.141 14.3632 183.906 14.7207C183.712 15.0782 183.712 15.5171 183.868 15.9135C184.218 16.7099 185.035 17.1064 185.814 17.4249C186.594 17.7435 186.632 17.7435 186.905 18.3806C187.293 19.2549 187.841 19.8142 188.578 19.931V23.9095H189.396V19.931C190.096 19.7717 190.681 19.2549 191.031 18.3806C191.304 17.7824 191.342 17.7435 192.122 17.4249C192.901 17.1064 193.719 16.7099 194.068 15.9135C194.224 15.5171 194.224 15.0782 194.03 14.7207C193.836 14.3632 193.407 14.1225 192.939 14.0446H192.863C192.901 13.9243 193.137 13.6871 193.563 13.3686L193.639 13.2907C194.183 12.8943 194.73 12.4554 195.042 11.6979C195.274 11.0997 195.236 10.505 194.966 10.0661C194.695 9.62723 194.186 9.39008 193.604 9.39008H193.487C193.293 9.39008 193.213 9.35115 193.213 9.35115C193.213 9.35115 193.175 9.27327 193.289 8.8733C193.407 8.47687 193.563 7.99902 193.639 7.56012C193.715 7.04334 193.601 6.52656 193.327 6.16906C193.015 5.81156 192.586 5.61335 192.122 5.61335C191.89 5.61335 191.654 5.65228 191.381 5.73369C191.263 5.77263 191.148 5.81156 191.069 5.81156C191.031 5.81156 190.993 5.81156 190.837 5.53194C190.563 5.09303 190.369 4.81694 190.137 4.61518C189.825 4.33556 189.437 4.21875 189.046 4.21875C188.616 4.21875 188.267 4.3391 187.955 4.61518C187.723 4.8134 187.487 5.09303 187.255 5.53194C187.099 5.81156 187.061 5.81156 187.023 5.81156C186.947 5.81156 186.867 5.77263 186.711 5.73369C186.479 5.65582 186.244 5.61335 186.012 5.61335C185.506 5.61335 185.077 5.81156 184.806 6.16906C184.495 6.52656 184.377 7.04334 184.495 7.56012C184.571 7.99902 184.727 8.47687 184.844 8.8733C184.962 9.26973 184.921 9.35115 184.921 9.35115C184.803 9.39008 184.727 9.42902 184.533 9.42902H184.529ZM185.464 9.86792C185.738 9.47149 185.62 8.99365 185.503 8.63615C185.385 8.27865 185.27 7.83974 185.191 7.44331C185.153 7.16368 185.191 6.8876 185.347 6.72831C185.464 6.56903 185.697 6.49116 185.932 6.49116C186.088 6.49116 186.244 6.5301 186.4 6.56903C186.632 6.6469 186.788 6.68938 186.985 6.68938C187.529 6.68938 187.803 6.25047 187.958 6.01332C188.152 5.65582 188.346 5.4576 188.502 5.29832C188.696 5.13904 188.852 5.10011 189.088 5.10011C189.323 5.10011 189.476 5.17798 189.673 5.29832C189.829 5.4576 190.023 5.65582 190.217 6.01332C190.373 6.25047 190.605 6.68938 191.19 6.68938C191.346 6.68938 191.54 6.65044 191.775 6.56903C191.931 6.5301 192.087 6.49116 192.205 6.49116C192.437 6.49116 192.673 6.56903 192.79 6.72831C192.946 6.8876 192.984 7.16722 192.946 7.44331C192.87 7.83974 192.752 8.27865 192.634 8.63615C192.558 8.83437 192.361 9.43256 192.673 9.86792C192.867 10.1476 193.178 10.2644 193.608 10.2644H193.726C193.958 10.2644 194.269 10.3033 194.425 10.544C194.581 10.7422 194.581 11.0608 194.425 11.3793C194.231 11.935 193.764 12.2536 193.296 12.6111C193.258 12.6111 193.258 12.65 193.22 12.689C192.714 13.0854 192.247 13.4464 192.17 13.9207C192.132 14.1579 192.17 14.3597 192.326 14.5189C192.482 14.7172 192.714 14.8375 192.988 14.8764C193.22 14.9154 193.376 14.9968 193.455 15.1561C193.532 15.2764 193.532 15.4357 193.455 15.595C193.261 16.1117 192.558 16.4303 191.976 16.6285C191.079 16.986 190.809 17.1064 190.418 18.0196C190.144 18.6567 189.794 18.9363 189.521 19.0531V15.8711L191.387 13.8818L190.802 13.2836L189.555 14.6357V12.0483L191.422 10.0591L190.837 9.46087L189.59 10.813V8.50519H188.772V10.813L187.525 9.46087L186.94 10.0591L188.807 12.0483V14.6357L187.56 13.2836L186.975 13.8818L188.842 15.8711V19.0531C188.53 18.9328 188.218 18.6956 187.945 18.0196C187.557 17.1028 187.283 16.986 186.386 16.6285C185.8 16.3914 185.139 16.0728 184.907 15.595C184.831 15.4357 184.831 15.2764 184.907 15.1561C184.983 14.9968 185.139 14.9189 185.374 14.8764C185.686 14.8375 185.918 14.7172 186.036 14.5189C186.154 14.3597 186.23 14.1614 186.192 13.9207C186.116 13.4429 185.648 13.0465 185.142 12.689L185.066 12.6111C184.599 12.2536 184.131 11.8961 183.937 11.3793C183.819 11.0608 183.819 10.7422 183.937 10.544C184.093 10.3068 184.405 10.2644 184.599 10.2644H184.754C184.948 10.2644 185.26 10.1051 185.454 9.86792H185.464Z" fill="#D89655"/>
<path d="M189.434 23.9492H188.617V28.7631H189.434V23.9492Z" fill="#D89655"/>
<path d="M191.225 23.9492H190.407V28.7631H191.225V23.9492Z" fill="#D89655"/>
<path d="M193.057 23.9492H192.24V27.8463H193.057V23.9492Z" fill="#D89655"/>
<path d="M194.886 23.9492H194.068V26.7349H194.886V23.9492Z" fill="#D89655"/>
<path d="M183.636 23.9492H182.818V27.0924H183.636V23.9492Z" fill="#D89655"/>
<path d="M185.426 23.9492H184.609V27.8463H185.426V23.9492Z" fill="#D89655"/>
<path d="M187.255 23.9492H186.438V28.6038H187.255V23.9492Z" fill="#D89655"/>
<path d="M196.639 23.4316H180.716V24.267H196.639V23.4316Z" fill="#D89655"/>
<path d="M160.536 47.0586H164.221V47.7311H161.305V49.0974H163.916V49.7699H161.305V51.2424H164.263V51.9149H160.536V47.0586Z" fill="white"/>
<path d="M165.517 51.6353C165.146 51.391 164.962 51.0229 164.962 50.5274L164.969 50.3787H165.731C165.721 50.446 165.718 50.492 165.718 50.5203C165.718 50.7858 165.825 50.9875 166.043 51.1256C166.261 51.2636 166.552 51.3344 166.923 51.3344C167.328 51.3344 167.636 51.2742 167.844 51.1503C168.052 51.0265 168.156 50.8495 168.156 50.6194C168.156 50.453 168.101 50.3185 167.986 50.2124C167.872 50.1062 167.73 50.0212 167.557 49.9575C167.384 49.8938 167.148 49.823 166.854 49.7416C166.48 49.6425 166.175 49.5434 165.936 49.4478C165.697 49.3522 165.496 49.2106 165.33 49.0231C165.163 48.8355 165.08 48.5912 165.08 48.2904C165.08 47.8621 165.253 47.5329 165.6 47.3099C165.946 47.0869 166.396 46.9736 166.951 46.9736C167.505 46.9736 167.938 47.0904 168.277 47.3205C168.617 47.5506 168.786 47.8975 168.786 48.3611V48.4461H168.038V48.3541C168.038 48.1275 167.938 47.9506 167.74 47.8267C167.543 47.7028 167.283 47.6391 166.964 47.6391C166.622 47.6391 166.351 47.6922 166.15 47.7948C165.95 47.8975 165.849 48.0497 165.849 48.2479C165.849 48.393 165.905 48.5169 166.015 48.6125C166.126 48.708 166.265 48.7894 166.431 48.8496C166.597 48.9098 166.822 48.9806 167.11 49.0549C167.498 49.1576 167.81 49.2567 168.049 49.3522C168.288 49.4478 168.492 49.5858 168.662 49.7734C168.831 49.961 168.918 50.2053 168.918 50.5061C168.918 51.0265 168.741 51.4052 168.385 51.6423C168.028 51.8795 167.543 51.9998 166.93 51.9998C166.358 51.9998 165.887 51.8795 165.517 51.6353Z" fill="white"/>
<path d="M170.989 47.7382H169.41V47.0586H173.338V47.7382H171.758V51.9149H170.989V47.7382Z" fill="white"/>
<path d="M174.01 47.0586H175.839C176.587 47.0586 177.165 47.2603 177.571 47.6603C177.976 48.0603 178.18 48.6691 178.18 49.4867C178.18 50.3044 177.976 50.9132 177.571 51.3132C177.165 51.7131 176.587 51.9149 175.839 51.9149H174.01V47.0586ZM175.839 51.2424C176.341 51.2424 176.725 51.1043 176.992 50.8282C177.259 50.5522 177.39 50.1203 177.39 49.5292V49.4514C177.39 48.8567 177.259 48.4213 176.992 48.1452C176.725 47.8692 176.341 47.7311 175.839 47.7311H174.779V51.2424H175.839Z" fill="white"/>
<path d="M179.081 51.0859H179.85V51.9142H179.081V51.0859Z" fill="white"/>
<path d="M182.974 51.3132H184.165V48.0355H182.967V47.5895C183.188 47.5648 183.452 47.5046 183.76 47.4055C184.068 47.3064 184.335 47.1896 184.567 47.0586H184.879V51.3132H185.98V51.9149H182.974V51.3132Z" fill="white"/>
<path d="M186.957 51.5857C186.718 51.3096 186.597 50.9415 186.597 50.4849H187.325C187.325 50.7822 187.387 51.0088 187.515 51.1645C187.643 51.3202 187.834 51.3981 188.087 51.3981C188.45 51.3981 188.7 51.2565 188.831 50.9769C188.963 50.6973 189.032 50.269 189.043 49.692C188.935 49.823 188.786 49.9363 188.592 50.0318C188.398 50.1274 188.18 50.1734 187.941 50.1734C187.446 50.1734 187.075 50.0248 186.822 49.731C186.57 49.4372 186.445 49.0514 186.445 48.5735C186.445 48.2514 186.514 47.9718 186.649 47.7276C186.784 47.4833 186.975 47.2993 187.214 47.1683C187.453 47.0373 187.723 46.9736 188.024 46.9736C188.603 46.9736 189.039 47.1542 189.334 47.5152C189.628 47.8762 189.777 48.485 189.777 49.3452C189.777 49.9964 189.711 50.5168 189.58 50.9061C189.448 51.2955 189.257 51.5751 189.005 51.745C188.752 51.9149 188.436 51.9998 188.052 51.9998C187.564 51.9998 187.196 51.8618 186.957 51.5857ZM188.748 49.3062C188.904 49.1186 188.98 48.8744 188.98 48.5735C188.98 48.2727 188.904 48.0426 188.748 47.855C188.592 47.6674 188.367 47.5754 188.073 47.5754C187.778 47.5754 187.553 47.6709 187.404 47.8585C187.255 48.0461 187.179 48.2939 187.179 48.5948C187.179 48.8956 187.255 49.1328 187.404 49.3133C187.553 49.4938 187.778 49.5858 188.073 49.5858C188.367 49.5858 188.592 49.4938 188.748 49.3062Z" fill="white"/>
<path d="M190.809 51.5857C190.57 51.3096 190.449 50.9415 190.449 50.4849H191.176C191.176 50.7822 191.239 51.0088 191.367 51.1645C191.495 51.3202 191.685 51.3981 191.938 51.3981C192.302 51.3981 192.551 51.2565 192.683 50.9769C192.815 50.6973 192.884 50.269 192.894 49.692C192.787 49.823 192.638 49.9363 192.444 50.0318C192.25 50.1274 192.032 50.1734 191.793 50.1734C191.297 50.1734 190.927 50.0248 190.674 49.731C190.421 49.4372 190.296 49.0514 190.296 48.5735C190.296 48.2514 190.366 47.9718 190.501 47.7276C190.636 47.4833 190.826 47.2993 191.065 47.1683C191.304 47.0373 191.575 46.9736 191.876 46.9736C192.454 46.9736 192.891 47.1542 193.185 47.5152C193.48 47.8762 193.629 48.485 193.629 49.3452C193.629 49.9964 193.563 50.5168 193.431 50.9061C193.299 51.2955 193.109 51.5751 192.856 51.745C192.603 51.9149 192.288 51.9998 191.904 51.9998C191.415 51.9998 191.048 51.8618 190.809 51.5857ZM192.6 49.3062C192.756 49.1186 192.832 48.8744 192.832 48.5735C192.832 48.2727 192.756 48.0426 192.6 47.855C192.444 47.6674 192.219 47.5754 191.924 47.5754C191.63 47.5754 191.405 47.6709 191.256 47.8585C191.107 48.0461 191.031 48.2939 191.031 48.5948C191.031 48.8956 191.107 49.1328 191.256 49.3133C191.405 49.4938 191.63 49.5858 191.924 49.5858C192.219 49.5858 192.444 49.4938 192.6 49.3062Z" fill="white"/>
<path d="M194.661 51.5857C194.422 51.3096 194.3 50.9415 194.3 50.4849H195.028C195.028 50.7822 195.09 51.0088 195.218 51.1645C195.346 51.3202 195.537 51.3981 195.79 51.3981C196.153 51.3981 196.403 51.2565 196.534 50.9769C196.666 50.6973 196.735 50.269 196.746 49.692C196.638 49.823 196.489 49.9363 196.295 50.0318C196.101 50.1274 195.883 50.1734 195.644 50.1734C195.149 50.1734 194.778 50.0248 194.525 49.731C194.273 49.4372 194.148 49.0514 194.148 48.5735C194.148 48.2514 194.217 47.9718 194.352 47.7276C194.487 47.4833 194.678 47.2993 194.917 47.1683C195.156 47.0373 195.426 46.9736 195.727 46.9736C196.306 46.9736 196.742 47.1542 197.037 47.5152C197.331 47.8762 197.48 48.485 197.48 49.3452C197.48 49.9964 197.414 50.5168 197.283 50.9061C197.151 51.2955 196.961 51.5751 196.708 51.745C196.455 51.9149 196.14 51.9998 195.755 51.9998C195.267 51.9998 194.9 51.8618 194.661 51.5857ZM196.451 49.3062C196.607 49.1186 196.683 48.8744 196.683 48.5735C196.683 48.2727 196.607 48.0426 196.451 47.855C196.295 47.6674 196.07 47.5754 195.776 47.5754C195.481 47.5754 195.256 47.6709 195.107 47.8585C194.958 48.0461 194.882 48.2939 194.882 48.5948C194.882 48.8956 194.958 49.1328 195.107 49.3133C195.256 49.4938 195.481 49.5858 195.776 49.5858C196.07 49.5858 196.295 49.4938 196.451 49.3062Z" fill="white"/>
<path d="M4.26738 44.1069V21.0005H0V18.3281H11.9293V21.0005H7.78658V44.1069H4.26738Z" fill="white"/>
<path d="M14.3608 44.1065V18.3242H19.4387C21.1221 18.3242 22.5111 18.5508 23.6126 19.0074C24.7141 19.464 25.5281 20.1967 26.058 21.2054C26.588 22.2142 26.8512 23.5345 26.8512 25.1698C26.8512 26.1679 26.7473 27.0741 26.5395 27.8917C26.3317 28.7094 25.9991 29.3996 25.5419 29.9588C25.0847 30.5216 24.482 30.9287 23.7338 31.1835L27.3154 44.1065H23.9209L20.6199 32.0118H17.88V44.1065H14.3608ZM17.88 29.4314H19.2205C20.2181 29.4314 21.0286 29.304 21.6486 29.0492C22.2721 28.7943 22.7293 28.3589 23.0203 27.743C23.3112 27.1272 23.4567 26.267 23.4567 25.1662C23.4567 23.6584 23.1865 22.5717 22.6462 21.9027C22.1058 21.2338 21.0355 20.901 19.4387 20.901H17.88V29.4314Z" fill="white"/>
<path d="M29.1548 44.1065L34.5133 18.3242H37.9078L43.2974 44.1065H39.9652L38.8118 37.6149H33.6716L32.4558 44.1065H29.1548ZM34.1392 35.0346H38.3442L36.2278 23.4177L34.1392 35.0346Z" fill="white"/>
<path d="M45.8501 44.1065V18.3242H51.3333C53.2037 18.3242 54.6828 18.618 55.7704 19.1985C56.8615 19.7825 57.6408 20.6568 58.105 21.8249C58.5726 22.9929 58.8047 24.4477 58.8047 26.1856V35.6717C58.8047 37.4981 58.5726 39.0343 58.105 40.2873C57.6374 41.5403 56.8788 42.489 55.8328 43.1367C54.7832 43.7844 53.3769 44.1065 51.6104 44.1065H45.8467H45.8501ZM49.3693 41.5297H51.3645C52.653 41.5297 53.564 41.2749 54.1043 40.7652C54.6447 40.2555 54.9703 39.5122 55.0846 38.5388C55.1989 37.5619 55.2543 36.3867 55.2543 35.0063V26.6352C55.2543 25.2972 55.1712 24.2176 55.0049 23.3894C54.8387 22.5611 54.475 21.9558 53.9138 21.5736C53.3527 21.1913 52.4694 21.0001 51.2675 21.0001H49.3659V41.5297H49.3693Z" fill="white"/>
<path d="M62.2647 44.1065V18.3242H72.0464V20.9966H65.7839V29.527H70.8618V32.072H65.7839V41.5262H72.1053V44.103H62.2612L62.2647 44.1065Z" fill="white"/>
<path d="M82.0742 44.1065V18.3242H88.3367C89.8539 18.3242 91.0627 18.6038 91.9668 19.1666C92.8708 19.7294 93.5289 20.54 93.9446 21.6019C94.3602 22.6637 94.568 23.9451 94.568 25.4529C94.568 26.8121 94.336 27.9908 93.8684 28.9854C93.4008 29.9836 92.7115 30.7517 91.797 31.2933C90.8826 31.8348 89.7396 32.1038 88.3714 32.1038H85.6003V44.103H82.0811L82.0742 44.1065ZM85.5934 29.527H87.2145C88.2328 29.527 89.0329 29.4102 89.6114 29.1766C90.1933 28.943 90.609 28.5359 90.8583 27.9519C91.1077 27.3679 91.2324 26.5467 91.2324 25.4848C91.2324 24.253 91.1424 23.3115 90.9692 22.6531C90.7925 21.9948 90.4254 21.5382 89.8642 21.2833C89.3031 21.0285 88.4302 20.901 87.2491 20.901H85.5969V29.527H85.5934Z" fill="white"/>
<path d="M94.4712 44.1065L99.8297 18.3242H103.224L108.614 44.1065H105.282L104.128 37.6149H98.988L97.7722 44.1065H94.4712ZM99.4556 35.0346H103.661L101.541 23.4177L99.4556 35.0346Z" fill="white"/>
<path d="M111.167 44.1065V18.3242H116.244C117.928 18.3242 119.317 18.5508 120.418 19.0074C121.52 19.464 122.334 20.1967 122.864 21.2054C123.394 22.2142 123.657 23.5345 123.657 25.1698C123.657 26.1679 123.553 27.0741 123.345 27.8917C123.137 28.7094 122.805 29.3996 122.348 29.9588C121.89 30.5216 121.288 30.9287 120.539 31.1835L124.121 44.1065H120.727L117.426 32.0118H114.686V44.1065H111.167ZM114.686 29.4314H116.026C117.024 29.4314 117.834 29.304 118.454 29.0492C119.078 28.7943 119.535 28.3589 119.826 27.743C120.117 27.1272 120.262 26.267 120.262 25.1662C120.262 23.6584 119.992 22.5717 119.452 21.9027C118.912 21.2338 117.841 20.901 116.244 20.901H114.686V29.4314Z" fill="white"/>
<path d="M130.106 44.1069V21.0005H125.839V18.3281H137.768V21.0005H133.625V44.1069H130.106Z" fill="white"/>
<path d="M140.2 44.1065V18.3242H142.597L149.76 35.4487V18.3242H152.687V44.1065H150.446L143.189 26.5042V44.1065H140.2Z" fill="white"/>
<path d="M156.646 44.1065V18.3242H166.428V20.9966H160.165V29.527H165.243V32.072H160.165V41.5262H166.49V44.103H156.646V44.1065Z" fill="white"/>
<path d="M169.323 44.1065V18.3242H174.401C176.085 18.3242 177.474 18.5508 178.575 19.0074C179.676 19.464 180.49 20.1967 181.02 21.2054C181.55 22.2142 181.814 23.5345 181.814 25.1698C181.814 26.1679 181.71 27.0741 181.502 27.8917C181.294 28.7094 180.962 29.3996 180.504 29.9588C180.047 30.5216 179.444 30.9287 178.696 31.1835L182.278 44.1065H178.883L175.582 32.0118H172.842V44.1065H169.323ZM172.842 29.4314H174.183C175.18 29.4314 175.991 29.304 176.611 29.0492C177.235 28.7943 177.692 28.3589 177.983 27.743C178.274 27.1272 178.419 26.267 178.419 25.1662C178.419 23.6584 178.149 22.5717 177.609 21.9027C177.068 21.2338 175.998 20.901 174.401 20.901H172.842V29.4314Z" fill="white"/>
<path d="M191.44 44.3932C189.985 44.3932 188.776 44.0747 187.81 43.4375C186.843 42.8004 186.112 41.919 185.614 40.797C185.115 39.6714 184.824 38.3688 184.741 36.8822L187.855 36.0221C187.917 36.9353 188.056 37.8167 188.274 38.6626C188.492 39.5121 188.849 40.2059 189.348 40.7474C189.846 41.289 190.543 41.558 191.433 41.558C192.323 41.558 193.037 41.2996 193.504 40.7793C193.972 40.259 194.204 39.5121 194.204 38.5352C194.204 37.3671 193.944 36.4292 193.424 35.7177C192.905 35.0062 192.25 34.2912 191.46 33.5692L187.224 29.75C186.393 29.0066 185.78 28.1961 185.385 27.3147C184.99 26.4334 184.793 25.3467 184.793 24.0512C184.793 22.1646 185.323 20.6992 186.383 19.6586C187.442 18.618 188.883 18.0977 190.712 18.0977C191.71 18.0977 192.586 18.2322 193.345 18.4941C194.103 18.7596 194.737 19.1666 195.246 19.7188C195.756 20.271 196.161 20.9647 196.462 21.8036C196.764 22.6425 196.964 23.6229 197.068 24.7485L194.079 25.5768C194.017 24.7273 193.892 23.9486 193.705 23.2371C193.518 22.5257 193.192 21.9523 192.725 21.5169C192.257 21.0815 191.589 20.8656 190.716 20.8656C189.843 20.8656 189.164 21.1028 188.676 21.5806C188.187 22.0584 187.945 22.7628 187.945 23.6973C187.945 24.4831 188.073 25.1308 188.333 25.6405C188.592 26.1502 189.012 26.6705 189.593 27.2015L193.861 31.0207C194.817 31.8702 195.655 32.8825 196.383 34.0612C197.11 35.2399 197.474 36.6344 197.474 38.2485C197.474 39.5227 197.214 40.62 196.694 41.5439C196.175 42.4677 195.465 43.1721 194.561 43.6605C193.657 44.149 192.614 44.3932 191.429 44.3932H191.44Z" fill="white"/>
<path d="M0.367188 6.00977H1.389V9.24494H5.41738V6.00977H6.43919V13.5597H5.41738V10.1582H1.389V13.5597H0.367188V6.00977Z" fill="white"/>
<path d="M8.32365 12.9471C7.88721 12.4515 7.66553 11.6905 7.66553 10.664C7.66553 9.63756 7.88375 8.87655 8.32365 8.38101C8.76008 7.88547 9.41474 7.6377 10.2841 7.6377C11.1536 7.6377 11.8047 7.88547 12.2446 8.38101C12.6811 8.87655 12.9028 9.63756 12.9028 10.664C12.9028 11.6905 12.6845 12.4515 12.2446 12.9471C11.8047 13.4426 11.1536 13.6904 10.2841 13.6904C9.41474 13.6904 8.76355 13.4426 8.32365 12.9471ZM11.5346 12.3737C11.7944 12.0339 11.9225 11.4781 11.9225 10.7065V10.618C11.9225 9.84639 11.7944 9.29068 11.5346 8.95088C11.2748 8.61108 10.8591 8.43764 10.2841 8.43764C9.70916 8.43764 9.2935 8.60754 9.03372 8.95088C8.77394 9.29422 8.64578 9.84639 8.64578 10.618V10.7065C8.64578 11.4781 8.77394 12.0339 9.03372 12.3737C9.2935 12.7135 9.70916 12.8869 10.2841 12.8869C10.8591 12.8869 11.2748 12.717 11.5346 12.3737Z" fill="white"/>
<path d="M14.4265 13.2231C14.1216 12.9116 13.9692 12.4089 13.9692 11.7223V7.77209H14.9183V11.655C14.9183 12.1187 15.0188 12.4373 15.2197 12.6178C15.4206 12.7983 15.7115 12.8868 16.0925 12.8868C16.3662 12.8868 16.6156 12.8195 16.8476 12.6815C17.0762 12.547 17.2598 12.3488 17.3984 12.0939C17.5335 11.8355 17.6027 11.5347 17.6027 11.1913V7.76855H18.5518V13.5558H17.8314L17.724 12.7735H17.6478C17.2321 13.3823 16.5948 13.6867 15.7427 13.6867C15.1746 13.6867 14.7382 13.531 14.4334 13.2195L14.4265 13.2231Z" fill="white"/>
<path d="M20.6164 13.4532C20.2666 13.294 20.0103 13.0887 19.8475 12.8303C19.6812 12.5719 19.6016 12.2958 19.6016 11.9949C19.6016 11.9064 19.6016 11.8463 19.6085 11.8144C19.612 11.7825 19.6154 11.7613 19.6154 11.7542H20.5506V11.864C20.5506 12.2073 20.6823 12.4692 20.949 12.6391C21.2157 12.8126 21.5586 12.8975 21.9812 12.8975C22.3483 12.8975 22.6497 12.8232 22.8922 12.671C23.1312 12.5223 23.2524 12.3099 23.2524 12.0374C23.2524 11.825 23.1831 11.6516 23.048 11.5135C22.9129 11.379 22.7432 11.2728 22.5423 11.195C22.3414 11.1171 22.0678 11.0357 21.7249 10.9472C21.3092 10.8375 20.9698 10.7278 20.7065 10.618C20.4433 10.5083 20.2216 10.3455 20.038 10.1296C19.8544 9.91365 19.7644 9.63402 19.7644 9.28714C19.7644 8.78098 19.9687 8.38101 20.374 8.08368C20.7792 7.78636 21.3265 7.6377 22.0158 7.6377C22.4453 7.6377 22.8194 7.70849 23.1346 7.85361C23.4498 7.99873 23.6888 8.18633 23.8516 8.42702C24.0144 8.66417 24.0941 8.92964 24.0941 9.22343L24.0837 9.43226H23.1589V9.33316C23.1589 9.07831 23.0584 8.86239 22.8644 8.69603C22.667 8.52613 22.3483 8.44472 21.9119 8.44472C21.4755 8.44472 21.181 8.52259 21.0079 8.68187C20.8347 8.84115 20.7481 9.02167 20.7481 9.22697C20.7481 9.39687 20.8104 9.53491 20.9317 9.64464C21.0529 9.75437 21.2053 9.84286 21.3854 9.91011C21.5655 9.97736 21.8149 10.0482 22.1405 10.1296C22.5873 10.2464 22.9476 10.3632 23.2281 10.4764C23.5087 10.5897 23.7477 10.7631 23.9451 10.9932C24.1426 11.2233 24.2396 11.5312 24.2396 11.9135C24.2396 12.5082 24.0283 12.9542 23.6092 13.2515C23.19 13.5488 22.6324 13.6975 21.9361 13.6975C21.4131 13.6975 20.9767 13.6196 20.6268 13.4603L20.6164 13.4532Z" fill="white"/>
<path d="M25.7393 12.9541C25.2925 12.4621 25.0708 11.7011 25.0708 10.664C25.0708 9.62694 25.2925 8.86593 25.7393 8.37393C26.1861 7.88193 26.8616 7.6377 27.776 7.6377C28.5935 7.6377 29.2066 7.86069 29.6118 8.30314C30.0171 8.74558 30.2215 9.46058 30.2215 10.4446V10.9295H26.0545C26.0892 11.5985 26.245 12.0905 26.5221 12.4091C26.7992 12.7276 27.2183 12.8869 27.776 12.8869C28.2298 12.8869 28.5935 12.7807 28.874 12.5683C29.1546 12.356 29.2932 12.0303 29.2932 11.5879H30.218C30.218 12.2639 29.9894 12.7807 29.5356 13.1453C29.0819 13.5099 28.493 13.6904 27.776 13.6904C26.865 13.6904 26.1861 13.4461 25.7393 12.9541ZM29.2273 10.126C29.2273 9.00397 28.7424 8.44118 27.7726 8.44118C27.2357 8.44118 26.8304 8.57214 26.5602 8.83761C26.2901 9.10308 26.1273 9.53137 26.0718 10.126H29.2273Z" fill="white"/>
<path d="M34.6654 12.9471C34.229 12.4515 34.0073 11.6905 34.0073 10.664C34.0073 9.63756 34.2255 8.87655 34.6654 8.38101C35.1019 7.88547 35.7565 7.6377 36.6259 7.6377C37.4954 7.6377 38.1465 7.88547 38.5864 8.38101C39.0229 8.87655 39.2446 9.63756 39.2446 10.664C39.2446 11.6905 39.0263 12.4515 38.5864 12.9471C38.1465 13.4426 37.4954 13.6904 36.6259 13.6904C35.7565 13.6904 35.1053 13.4426 34.6654 12.9471ZM37.8764 12.3737C38.1362 12.0339 38.2643 11.4781 38.2643 10.7065V10.618C38.2643 9.84639 38.1362 9.29068 37.8764 8.95088C37.6166 8.61108 37.2009 8.43764 36.6259 8.43764C36.051 8.43764 35.6353 8.60754 35.3755 8.95088C35.1157 9.29422 34.9876 9.84639 34.9876 10.618V10.7065C34.9876 11.4781 35.1157 12.0339 35.3755 12.3737C35.6353 12.7135 36.051 12.8869 36.6259 12.8869C37.2009 12.8869 37.6166 12.717 37.8764 12.3737Z" fill="white"/>
<path d="M40.5471 8.57578H39.7192V7.77229H40.5471V6.84846C40.5471 6.46619 40.6406 6.15116 40.8276 5.89631C41.0147 5.645 41.3299 5.51758 41.7767 5.51758C41.9187 5.51758 42.0642 5.53174 42.2132 5.55651C42.3586 5.58129 42.4833 5.61315 42.5838 5.64854V6.32106H42.0226C41.6693 6.32106 41.4962 6.49804 41.4962 6.84846V7.77229H42.5838V8.57578H41.4962V13.5595H40.5471V8.57578Z" fill="white"/>
<path d="M45.7251 6.00977H46.8024L48.2883 11.3368C48.3368 11.5067 48.4303 11.8926 48.5689 12.4907H48.6243L48.8391 11.3368L49.9821 6.00977H51.4473L52.6319 11.3368L52.857 12.4907H52.9125C53.0545 11.889 53.1515 11.5032 53.2034 11.3368L54.634 6.00977H55.6558L53.5221 13.5597H52.1123L50.9485 8.26448C50.8827 7.95654 50.7996 7.54594 50.6991 7.03271H50.6437C50.5571 7.59196 50.4844 8.00255 50.4289 8.26448L49.2651 13.5597H47.8554L45.7217 6.00977H45.7251Z" fill="white"/>
<path d="M56.6156 12.9471C56.1792 12.4515 55.9575 11.6905 55.9575 10.664C55.9575 9.63756 56.1757 8.87655 56.6156 8.38101C57.0521 7.88547 57.7067 7.6377 58.5761 7.6377C59.4455 7.6377 60.0967 7.88547 60.5366 8.38101C60.9731 8.87655 61.1947 9.63756 61.1947 10.664C61.1947 11.6905 60.9765 12.4515 60.5366 12.9471C60.0967 13.4426 59.4455 13.6904 58.5761 13.6904C57.7067 13.6904 57.0555 13.4426 56.6156 12.9471ZM59.8266 12.3737C60.0863 12.0339 60.2145 11.4781 60.2145 10.7065V10.618C60.2145 9.84639 60.0863 9.29068 59.8266 8.95088C59.5668 8.61108 59.1511 8.43764 58.5761 8.43764C58.0011 8.43764 57.5855 8.60754 57.3257 8.95088C57.0659 9.29422 56.9378 9.84639 56.9378 10.618V10.7065C56.9378 11.4781 57.0659 12.0339 57.3257 12.3737C57.5855 12.7135 58.0011 12.8869 58.5761 12.8869C59.1511 12.8869 59.5668 12.717 59.8266 12.3737Z" fill="white"/>
<path d="M62.2891 7.77159H63.0095L63.1169 8.64233H63.1827C63.2901 8.35562 63.4529 8.11847 63.6676 7.92733C63.8824 7.73619 64.1664 7.64062 64.5197 7.64062C64.7137 7.64062 64.8834 7.66894 65.0254 7.72911V8.66356H64.6271C64.2253 8.66356 63.8928 8.78391 63.6295 9.02106C63.3663 9.25821 63.2381 9.63341 63.2381 10.1396V13.5623H62.2891V7.77159Z" fill="white"/>
<path d="M65.8774 5.60254H66.8265V10.611L69.2269 7.7723H70.4011L68.451 10.0518L70.5085 13.5631H69.4105L67.8587 10.7456L66.8265 11.7473V13.5631H65.8774V5.60254Z" fill="white"/>
<path d="M71.6899 13.3301C71.5098 13.0965 71.4198 12.8063 71.4198 12.4594V8.57647H70.7305V7.77299H71.4302L71.6345 6.16602H72.3654V7.77299H73.3248V8.57647H72.3654V12.3744C72.3654 12.7178 72.5247 12.8912 72.8399 12.8912H73.3248V13.5283C73.2313 13.5708 73.1101 13.6098 72.9577 13.6381C72.8053 13.6664 72.6667 13.6805 72.5386 13.6805C72.1506 13.6805 71.8666 13.5637 71.6865 13.3266L71.6899 13.3301Z" fill="white"/>
<path d="M74.5683 12.9471C74.1318 12.4515 73.9102 11.6905 73.9102 10.664C73.9102 9.63756 74.1284 8.87655 74.5683 8.38101C75.0047 7.88547 75.6594 7.6377 76.5288 7.6377C77.3982 7.6377 78.0494 7.88547 78.4893 8.38101C78.9257 8.87655 79.1474 9.63756 79.1474 10.664C79.1474 11.6905 78.9292 12.4515 78.4893 12.9471C78.0494 13.4426 77.3982 13.6904 76.5288 13.6904C75.6594 13.6904 75.0082 13.4426 74.5683 12.9471ZM77.7792 12.3737C78.039 12.0339 78.1671 11.4781 78.1671 10.7065V10.618C78.1671 9.84639 78.039 9.29068 77.7792 8.95088C77.5194 8.61108 77.1038 8.43764 76.5288 8.43764C75.9538 8.43764 75.5381 8.60754 75.2783 8.95088C75.0186 9.29422 74.8904 9.84639 74.8904 10.618V10.7065C74.8904 11.4781 75.0186 12.0339 75.2783 12.3737C75.5381 12.7135 75.9538 12.8869 76.5288 12.8869C77.1038 12.8869 77.5194 12.717 77.7792 12.3737Z" fill="white"/>
<path d="M80.2417 7.77159H80.9518L81.0695 8.55384H81.1354C81.3224 8.25297 81.5683 8.02644 81.8731 7.8707C82.1779 7.71496 82.5174 7.64062 82.8915 7.64062C83.6085 7.64062 84.1627 7.88486 84.5506 8.37686C84.9386 8.86886 85.1326 9.62987 85.1326 10.667C85.1326 11.7041 84.9386 12.4368 84.5576 12.9394C84.1731 13.442 83.6466 13.6933 82.9815 13.6933C82.5798 13.6933 82.2368 13.6296 81.9597 13.5057C81.6792 13.3818 81.4471 13.1801 81.2601 12.9004H81.1942V15.4631H80.2452V7.77159H80.2417ZM83.5254 12.681C83.7401 12.5429 83.8994 12.3129 83.9999 11.9979C84.1003 11.6828 84.1523 11.2545 84.1523 10.7094V10.667C84.1523 10.1183 84.1003 9.67942 83.9999 9.35732C83.8994 9.03522 83.7401 8.80161 83.5219 8.66002C83.3037 8.51844 83.0127 8.44411 82.656 8.44411C82.1537 8.44411 81.7831 8.63171 81.5475 9.00336C81.312 9.37856 81.1908 9.93073 81.1908 10.667V10.7094C81.1908 11.428 81.3085 11.9731 81.5406 12.3377C81.7727 12.7058 82.1468 12.8863 82.656 12.8863C83.0231 12.8863 83.3141 12.8155 83.5288 12.6774L83.5254 12.681Z" fill="white"/>
<path d="M86.8611 13.4532C86.5112 13.294 86.2549 13.0887 86.0921 12.8303C85.9259 12.5719 85.8462 12.2958 85.8462 11.9949C85.8462 11.9064 85.8462 11.8463 85.8531 11.8144C85.8566 11.7825 85.86 11.7613 85.86 11.7542H86.7953V11.864C86.7953 12.2073 86.9269 12.4692 87.1936 12.6391C87.4603 12.8126 87.8032 12.8975 88.2258 12.8975C88.593 12.8975 88.8943 12.8232 89.1368 12.671C89.3758 12.5223 89.497 12.3099 89.497 12.0374C89.497 11.825 89.4277 11.6516 89.2927 11.5135C89.1576 11.379 88.9878 11.2728 88.7869 11.195C88.586 11.1171 88.3124 11.0357 87.9695 10.9472C87.5538 10.8375 87.2144 10.7278 86.9511 10.618C86.6879 10.5083 86.4662 10.3455 86.2826 10.1296C86.0991 9.91365 86.009 9.63402 86.009 9.28714C86.009 8.78098 86.2134 8.38101 86.6186 8.08368C87.0239 7.78636 87.5712 7.6377 88.2604 7.6377C88.69 7.6377 89.064 7.70849 89.3792 7.85361C89.6945 7.99873 89.9334 8.18633 90.0962 8.42702C90.259 8.66417 90.3387 8.92964 90.3387 9.22343L90.3283 9.43226H89.4035V9.33316C89.4035 9.07831 89.303 8.86239 89.1091 8.69603C88.9116 8.52613 88.593 8.44472 88.1565 8.44472C87.7201 8.44472 87.4257 8.52259 87.2525 8.68187C87.0793 8.84115 86.9927 9.02167 86.9927 9.22697C86.9927 9.39687 87.055 9.53491 87.1763 9.64464C87.2975 9.75437 87.4499 9.84286 87.63 9.91011C87.8102 9.97736 88.0595 10.0482 88.3851 10.1296C88.832 10.2464 89.1922 10.3632 89.4728 10.4764C89.7533 10.5897 89.9923 10.7631 90.1898 10.9932C90.3872 11.2233 90.4842 11.5312 90.4842 11.9135C90.4842 12.5082 90.2729 12.9542 89.8538 13.2515C89.4347 13.5488 88.877 13.6975 88.1808 13.6975C87.6577 13.6975 87.2213 13.6196 86.8715 13.4603L86.8611 13.4532Z" fill="white"/>
</svg>
